<svg xmlns="http://www.w3.org/2000/svg" enable-background="new 0 0 73 73" viewBox="0 0 73 73">
    <path fill="#0f1014" d="M11.4280081 27.0265236c-.0039063.0019531-.0068359.0039063-.0107422.0058594-.8846626.4083061-1.3699751 1.7081413-.8457031 2.6953125.490469.9242916 1.7362862 1.3158264 2.671875.828125.9306641-.4863281 1.3261719-1.7324219.8447266-2.6660156C13.6076956 26.9552345 12.3674612 26.5519142 11.4280081 27.0265236zM18.4289856 27.0265236c-.0039063.0019531-.0068359.0039063-.0107422.0058594-.8846626.4083061-1.369976 1.7081413-.8457031 2.6953125.4904671.9242916 1.7362862 1.3158264 2.671875.828125.9306641-.4863281 1.3261719-1.7324219.8447266-2.6660156C20.6086731 26.9552345 19.3674622 26.5519142 18.4289856 27.0265236zM11.8362112 41.2189064c-.0058594.0029297-.0117188.0058594-.0175781.0087891-.9238281.4990234-1.3017578 1.75-.8095703 2.6767578.4896936.9242096 1.7361078 1.315918 2.671875.828125.9306641-.4863281 1.3261719-1.7324219.8447266-2.6660156C14.0102568 41.0620461 12.6417265 40.7355957 11.8362112 41.2189064zM18.8371887 41.2189064c-.0058594.0029297-.0117188.0058594-.0175781.0087891-.9238281.4990234-1.3017578 1.75-.8095703 2.6767578.3466797.6542969 1.0693359 1.0390625 1.7919922 1.0390625 1.5176544 0 2.3450794-1.6737671 1.7246094-2.8769531C21.0136642 41.0667839 19.6474781 40.7327347 18.8371887 41.2189064zM11.8655081 56.0714455c-.0039063.0019531-.0068359.0039063-.0107422.0058594-.0117188.0048828-.0244141.0117188-.0361328.0175781-.9238281.4990234-1.3027344 1.75-.8095703 2.6777344.490469.9242935 1.7362862 1.3158264 2.671875.828125.9306641-.4863281 1.3251953-1.7324219.8447266-2.6669922C14.0461721 55.9991798 12.8000784 55.5978127 11.8655081 56.0714455zM18.8664856 56.0714455c-.0039063.0019531-.0078125.0039063-.0107422.0058594-.8343582.3476486-1.3876896 1.6757355-.8457031 2.6953125.4904671.9242935 1.7362862 1.3158264 2.671875.828125.9306641-.4863281 1.3251953-1.7324219.8447266-2.6669922C21.0471497 55.9991798 19.8010559 55.5978127 18.8664856 56.0714455z"/>
    <path fill="#0f1014" d="M59.7825012,5.2950788c-0.0361328-0.0107422-0.0810547-0.0185547-0.1259766-0.0244141l0.0009766-0.0019531
		c-4.46632-1.2914658-10.0656624,0.0725236-13.4470825,4.1705937c-2.4326172,2.9483032-3.4730835,6.9430532-2.9804077,10.7337027
		h-32.927002c-0.8528442,0-1.6459351,0.2199097-2.3330078,0.5865479c0.0006104-0.0013428,0.0011597-0.0026855,0.00177-0.0040283
		c-1.7057495,0.6856689-2.7860718,2.6378174-3.2318726,4.2814941c-0.7211933,2.6592827-0.3563218,8.666214,0.2457886,10.9500732
		c-0.9414673,5.4301758-0.9911497,9.765564,0.3929443,14.934021c-0.6924438,4.1300049-1.9953001,10.5662231,0,14.5467567
		c1.1342163,2.2628174,5.3154297,2.072876,8.2786255,2.3434448c5.9450102,0.5428009,21.0370216,0.6802826,34.3119507-0.6626587
		c0.8508301-0.0860596,1.7670898-0.2037354,2.3876953-0.774292s0.6729736-1.7588501-0.1033936-2.1069946
		c-0.4568481-0.2047882-1.0045471-0.0503387-1.5276489,0.0848999c0.4367676-0.5440712,0.7021484-1.1928749,0.71875-1.9009438
		c0.0714302-3.0542145-0.0746956-6.07061-0.0078125-9.0585938c0.0242462-1.1115379-0.547348-2.2263222-1.8137207-2.975708
		c1.0806885-0.6270142,1.7937622-1.6486206,1.8215332-2.8328857c0.0714302-3.0542145-0.0746956-6.0715866-0.0078125-9.0595703
		c0.0233803-1.0705948-0.5271072-2.1677971-1.6724243-2.9026489c0.9989014-0.6329956,1.6541748-1.6087036,1.6773071-2.7369995
		c0.0302734-1.3377686,0.0217896-2.6499023,0.0059814-3.8076172c3.6574707,1.9567242,9.1642494,2.1268787,13.2210083-0.4448242
		c2.6257935-1.6645508,4.8120728-4.6200562,5.4462891-7.7188721C70.2643356,14.1205492,66.2042389,7.1964879,59.7825012,5.2950788z
		 M66.9709778,19.3702736c-1.0900116,5.1775513-5.5961113,8.6962891-10.6894531,8.6962891
		C49.0053368,28.0393124,43.308136,20.7111168,46.07547,12.9122667c1.5838432-4.4146729,6.3584709-7.0665855,11.3681641-6.5439458
		C63.9003029,7.0893703,68.206749,13.1079149,66.9709778,19.3702736z M47.9446106,62.416172
		c-0.0263672,1.1152344-1.2910156,2.0214882-2.8203125,2.0214882c-0.1649857,0-34.6964455-0.0495377-34.8300781-0.0498047
		c-1.5498047-0.0019531-2.8115234-0.9296913-2.8115234-2.0673866v-9.0097656c0-1.1396484,1.2636719-2.0673828,2.8164063-2.0673828
		h34.8261719c1.3747673,0,2.839962,0.8451042,2.8115234,2.1162109C47.8702087,56.3872871,48.015667,59.431694,47.9446106,62.416172z
		 M47.9446106,47.5489845c-0.0263672,1.1152344-1.2910156,2.0214844-2.8203125,2.0214844
		c-0.1649857,0-34.6964455-0.0505066-34.8300781-0.0507813c-1.5507813-0.0019531-2.8115234-0.9287109-2.8115234-2.0673828
		v-9.0087891c0-1.1396484,1.2636719-2.0673828,2.8164063-2.0673828h34.8261719c1.3800926,0,2.8399239,0.8459282,2.8115234,2.1152344
		C47.8702087,41.5191231,48.015667,44.5645065,47.9446106,47.5489845z M47.9416809,32.853672
		c-0.0224609,1.1123047-1.2910156,2.0166016-2.8251953,2.0166016l-34.8232422-0.0527344
		c-1.3010073,0-2.8056641-0.7793427-2.8056641-2.0644531v-9.015625c0-1.2514534,1.4508915-2.0644531,2.8154297-2.0644531h33.2147217
		c0.6272163,2.1536674,2.2117844,4.6077442,4.4189453,6.3909302C47.9870911,32.2056656,47.9447556,32.2277832,47.9416809,32.853672z
		"/>
	<path fill="#242730" d="M51.9778137 12.5704699c-.3085938-.2763672-.7832031-.2509766-1.0585938.0566406-.2773438.3076172-.2519531.7822266.0566406 1.0585938l3.9153442 3.5167227-3.8762817 3.8758545c-.2929688.2929688-.2929688.7675781 0 1.0605469.2930717.2930737.7675667.2929783 1.0605469 0l3.9331665-3.9326782c4.1140823 3.6023293 3.9598618 3.7627563 4.4760132 3.7627563.6822319 0 1.0130653-.8490028.5009766-1.3076172l-3.9153442-3.5167236 3.8762817-3.8758535c.2929688-.2929688.2929688-.7675781 0-1.0605469s-.7675781-.2929688-1.0605469 0l-3.9331665 3.9326773L51.9778137 12.5704699zM40.6887512 27.6544533H27.8645325c-.4140625 0-.75.3359375-.75.75s.3359375.75.75.75h12.8242188c.4140625 0 .75-.3359375.75-.75S41.1028137 27.6544533 40.6887512 27.6544533zM37.4983215 42.6544533h-8.4667969c-.4140625 0-.75.3359375-.75.75s.3359375.75.75.75h8.4667969c.4140625 0 .75-.3359375.75-.75S37.912384 42.6544533 37.4983215 42.6544533zM41.0422668 56.9874611H29.0315247c-.4140625 0-.75.3359375-.75.75s.3359375.75.75.75h12.0107422c.4140625 0 .75-.3359375.75-.75S41.4563293 56.9874611 41.0422668 56.9874611z"/>
</svg>